<svg width="592" height="97" viewBox="0 0 592 97" fill="none" xmlns="http://www.w3.org/2000/svg">
<path d="M136.53 7.59999V33.25H34.2V44.725H117.9V67.675H34.2V94H0.45V7.59999H136.53ZM143.94 27.85H176.34V94H143.94V27.85ZM211.17 52.825C205.32 52.825 199.965 53.365 195.105 54.445C190.245 55.525 186.105 56.83 182.685 58.36C179.265 59.8 176.7 61.24 174.99 62.68L174.72 56.2C174.99 54.31 175.71 52.105 176.88 49.585C178.05 46.975 179.625 44.32 181.605 41.62C183.585 38.83 186.015 36.265 188.895 33.925C191.775 31.495 195.06 29.56 198.75 28.12C202.53 26.59 206.67 25.825 211.17 25.825V52.825ZM311.27 70.24H343.13C342.32 75.46 339.71 80.005 335.3 83.875C330.98 87.745 324.635 90.76 316.265 92.92C307.985 94.99 297.41 96.025 284.54 96.025C270.95 96.025 259.205 94.945 249.305 92.785C239.495 90.625 231.935 86.98 226.625 81.85C221.315 76.72 218.66 69.79 218.66 61.06C218.66 52.42 221.225 45.535 226.355 40.405C231.575 35.185 239.09 31.45 248.9 29.2C258.71 26.95 270.59 25.825 284.54 25.825C298.22 25.825 309.425 27.04 318.155 29.47C326.885 31.9 333.32 35.86 337.46 41.35C341.6 46.75 343.58 54.085 343.4 63.355H251.6C252.05 65.695 253.31 67.855 255.38 69.835C257.54 71.815 260.825 73.435 265.235 74.695C269.735 75.865 275.72 76.45 283.19 76.45C290.93 76.45 297.275 75.91 302.225 74.83C307.265 73.75 310.28 72.22 311.27 70.24ZM283.19 45.4C273.65 45.4 266.36 46.435 261.32 48.505C256.37 50.575 253.445 52.645 252.545 54.715H311.945C311.315 52.375 308.795 50.26 304.385 48.37C299.975 46.39 292.91 45.4 283.19 45.4ZM353.544 70.24H383.379C384.639 72.58 387.024 74.2 390.534 75.1C394.134 76 399.264 76.45 405.924 76.45C411.054 76.45 414.834 76.18 417.264 75.64C419.784 75.1 421.404 74.38 422.124 73.48C422.934 72.58 423.339 71.635 423.339 70.645C423.339 69.115 422.484 68.08 420.774 67.54C419.154 66.91 416.364 66.55 412.404 66.46C408.444 66.28 402.999 66.19 396.069 66.19C389.499 66.19 383.604 65.92 378.384 65.38C373.254 64.75 368.889 63.805 365.289 62.545C361.689 61.195 358.944 59.35 357.054 57.01C355.164 54.67 354.219 51.745 354.219 48.235C354.219 43.915 355.614 40.315 358.404 37.435C361.194 34.465 364.974 32.17 369.744 30.55C374.514 28.84 380.004 27.625 386.214 26.905C392.514 26.185 399.084 25.825 405.924 25.825C417.264 25.825 426.534 26.995 433.734 29.335C440.934 31.585 446.244 34.645 449.664 38.515C453.084 42.385 454.749 46.75 454.659 51.61H425.634C424.644 49.27 422.754 47.65 419.964 46.75C417.264 45.85 412.584 45.4 405.924 45.4C399.624 45.4 395.034 45.895 392.154 46.885C389.364 47.785 387.969 49.27 387.969 51.34C387.969 52.69 388.644 53.725 389.994 54.445C391.434 55.075 394.089 55.525 397.959 55.795C401.919 56.065 407.679 56.2 415.239 56.2C420.459 56.2 425.544 56.38 430.494 56.74C435.534 57.1 440.034 57.865 443.994 59.035C448.044 60.205 451.239 62.005 453.579 64.435C455.919 66.865 457.089 70.195 457.089 74.425C457.089 79.555 454.974 83.74 450.744 86.98C446.604 90.13 440.709 92.425 433.059 93.865C425.409 95.305 416.364 96.025 405.924 96.025C396.834 96.025 389.139 95.44 382.839 94.27C376.629 93.1 371.544 91.57 367.584 89.68C363.624 87.7 360.564 85.585 358.404 83.335C356.334 80.995 354.939 78.7 354.219 76.45C353.589 74.11 353.364 72.04 353.544 70.24ZM559.391 94V69.43C559.391 65.38 558.581 61.96 556.961 59.17C555.341 56.38 552.461 54.31 548.321 52.96C544.271 51.52 538.511 50.8 531.041 50.8C526.811 50.8 522.671 51.205 518.621 52.015C514.661 52.735 511.061 53.635 507.821 54.715C504.671 55.795 502.151 56.875 500.261 57.955L499.991 51.475C500.351 50.125 501.566 48.1 503.636 45.4C505.796 42.61 508.901 39.73 512.951 36.76C517.001 33.7 522.086 31.135 528.206 29.065C534.416 26.905 541.751 25.825 550.211 25.825C555.521 25.825 560.651 26.32 565.601 27.31C570.551 28.3 574.961 29.965 578.831 32.305C582.791 34.555 585.941 37.615 588.281 41.485C590.621 45.355 591.791 50.17 591.791 55.93V94H559.391ZM469.211 94V0.849992H501.611V94H469.211Z" fill="white"/>
<path d="M136.53 7.59999H137.53V6.59999H136.53V7.59999ZM136.53 33.25V34.25H137.53V33.25H136.53ZM34.2 33.25V32.25H33.2V33.25H34.2ZM34.2 44.725H33.2V45.725H34.2V44.725ZM117.9 44.725H118.9V43.725H117.9V44.725ZM117.9 67.675V68.675H118.9V67.675H117.9ZM34.2 67.675V66.675H33.2V67.675H34.2ZM34.2 94V95H35.2V94H34.2ZM0.45 94H-0.55V95H0.45V94ZM0.45 7.59999V6.59999H-0.55V7.59999H0.45ZM135.53 7.59999V33.25H137.53V7.59999H135.53ZM136.53 32.25H34.2V34.25H136.53V32.25ZM33.2 33.25V44.725H35.2V33.25H33.2ZM34.2 45.725H117.9V43.725H34.2V45.725ZM116.9 44.725V67.675H118.9V44.725H116.9ZM117.9 66.675H34.2V68.675H117.9V66.675ZM33.2 67.675V94H35.2V67.675H33.2ZM34.2 93H0.45V95H34.2V93ZM1.45 94V7.59999H-0.55V94H1.45ZM0.45 8.59999H136.53V6.59999H0.45V8.59999ZM143.94 27.85V26.85H142.94V27.85H143.94ZM176.34 27.85H177.34V26.85H176.34V27.85ZM176.34 94V95H177.34V94H176.34ZM143.94 94H142.94V95H143.94V94ZM211.17 52.825V53.825H212.17V52.825H211.17ZM195.105 54.445L195.322 55.4212L195.105 54.445ZM182.685 58.36L183.073 59.2816L183.083 59.2773L183.094 59.2728L182.685 58.36ZM174.99 62.68L173.991 62.7216L174.076 64.7573L175.634 63.4449L174.99 62.68ZM174.72 56.2L173.73 56.0586L173.717 56.1497L173.721 56.2416L174.72 56.2ZM176.88 49.585L177.787 50.0061L177.793 49.9941L176.88 49.585ZM181.605 41.62L182.412 42.2114L182.416 42.2051L182.421 42.1987L181.605 41.62ZM188.895 33.925L189.526 34.7011L189.533 34.6953L189.54 34.6893L188.895 33.925ZM198.75 28.12L199.114 29.0516L199.125 29.0469L198.75 28.12ZM211.17 25.825H212.17V24.825H211.17V25.825ZM143.94 28.85H176.34V26.85H143.94V28.85ZM175.34 27.85V94H177.34V27.85H175.34ZM176.34 93H143.94V95H176.34V93ZM144.94 94V27.85H142.94V94H144.94ZM211.17 51.825C205.26 51.825 199.831 52.3705 194.888 53.4688L195.322 55.4212C200.1 54.3595 205.381 53.825 211.17 53.825V51.825ZM194.888 53.4688C189.983 54.559 185.775 55.8824 182.277 57.4472L183.094 59.2728C186.436 57.7776 190.508 56.491 195.322 55.4212L194.888 53.4688ZM182.297 57.4384C178.837 58.8953 176.167 60.3816 174.346 61.9151L175.634 63.4449C177.233 62.0984 179.693 60.7047 183.073 59.2816L182.297 57.4384ZM175.989 62.6384L175.719 56.1584L173.721 56.2416L173.991 62.7216L175.989 62.6384ZM175.71 56.3414C175.962 54.5813 176.641 52.4739 177.787 50.0061L175.973 49.1639C174.779 51.7361 174.019 54.0387 173.73 56.0586L175.71 56.3414ZM177.793 49.9941C178.93 47.4582 180.466 44.8639 182.412 42.2114L180.799 41.0286C178.784 43.7761 177.171 46.4918 175.968 49.1759L177.793 49.9941ZM182.421 42.1987C184.344 39.4886 186.71 36.9888 189.526 34.7011L188.265 33.1489C185.32 35.5412 182.826 38.1714 180.79 41.0413L182.421 42.1987ZM189.54 34.6893C192.332 32.3337 195.521 30.4537 199.114 29.0516L198.387 27.1884C194.6 28.6663 191.219 30.6563 188.25 33.1607L189.54 34.6893ZM199.125 29.0469C202.774 27.57 206.786 26.825 211.17 26.825V24.825C206.555 24.825 202.286 25.61 198.375 27.193L199.125 29.0469ZM210.17 25.825V52.825H212.17V25.825H210.17ZM311.27 70.24V69.24H310.652L310.375 69.7928L311.27 70.24ZM343.13 70.24L344.118 70.3933L344.297 69.24H343.13V70.24ZM335.3 83.875L334.64 83.1233L334.632 83.1302L335.3 83.875ZM316.265 92.92L316.507 93.8902L316.514 93.8883L316.265 92.92ZM249.305 92.785L249.09 93.7616L249.091 93.762L249.305 92.785ZM226.625 81.85L227.319 81.1308L226.625 81.85ZM226.355 40.405L225.647 39.6979L226.355 40.405ZM248.9 29.2L248.676 28.2253L248.9 29.2ZM337.46 41.35L336.661 41.9521L336.666 41.9584L337.46 41.35ZM343.4 63.355V64.355H344.38L344.399 63.3744L343.4 63.355ZM251.6 63.355V62.355H250.389L250.618 63.5438L251.6 63.355ZM255.38 69.835L254.688 70.5576L254.696 70.565L254.704 70.5722L255.38 69.835ZM265.235 74.695L264.96 75.6565L264.971 75.6598L264.983 75.6628L265.235 74.695ZM302.225 74.83L302.015 73.8522L302.011 73.853L302.225 74.83ZM261.32 48.505L260.94 47.58L260.934 47.5824L261.32 48.505ZM252.545 54.715L251.628 54.3163L251.019 55.715H252.545V54.715ZM311.945 54.715V55.715H313.249L312.91 54.455L311.945 54.715ZM304.385 48.37L303.975 49.2823L303.983 49.2858L303.991 49.2891L304.385 48.37ZM311.27 71.24H343.13V69.24H311.27V71.24ZM342.141 70.0867C341.371 75.0489 338.895 79.3898 334.64 83.1234L335.959 84.6266C340.525 80.6202 343.268 75.8711 344.118 70.3933L342.141 70.0867ZM334.632 83.1302C330.476 86.8538 324.3 89.8137 316.015 91.9517L316.514 93.8883C324.97 91.7063 331.483 88.6362 335.967 84.6198L334.632 83.1302ZM316.022 91.9499C307.851 93.9927 297.365 95.025 284.54 95.025V97.025C297.454 97.025 308.119 95.9873 316.507 93.8901L316.022 91.9499ZM284.54 95.025C270.999 95.025 259.329 93.9485 249.518 91.808L249.091 93.762C259.081 95.9415 270.901 97.025 284.54 97.025V95.025ZM249.52 91.8084C239.827 89.6743 232.457 86.0939 227.319 81.1308L225.93 82.5692C231.413 87.8661 239.162 91.5757 249.09 93.7616L249.52 91.8084ZM227.319 81.1308C222.24 76.2234 219.66 69.5723 219.66 61.06H217.66C217.66 70.0077 220.389 77.2166 225.93 82.5692L227.319 81.1308ZM219.66 61.06C219.66 52.6309 222.154 46.0194 227.062 41.1121L225.647 39.6979C220.295 45.0506 217.66 52.2091 217.66 61.06H219.66ZM227.062 41.1121C232.109 36.0649 239.432 32.3974 249.123 30.1747L248.676 28.2253C238.747 30.5026 231.04 34.305 225.647 39.6979L227.062 41.1121ZM249.123 30.1747C258.838 27.9466 270.638 26.825 284.54 26.825V24.825C270.541 24.825 258.581 25.9534 248.676 28.2253L249.123 30.1747ZM284.54 26.825C298.17 26.825 309.276 28.0367 317.886 30.4334L318.423 28.5066C309.573 26.0433 298.269 24.825 284.54 24.825V26.825ZM317.886 30.4334C326.472 32.8232 332.69 36.6861 336.661 41.9521L338.258 40.7479C333.949 35.0339 327.297 30.9768 318.423 28.5066L317.886 30.4334ZM336.666 41.9584C340.625 47.123 342.577 54.2106 342.4 63.3356L344.399 63.3744C344.582 53.9594 342.574 46.377 338.253 40.7416L336.666 41.9584ZM343.4 62.355H251.6V64.355H343.4V62.355ZM250.618 63.5438C251.114 66.126 252.499 68.4638 254.688 70.5576L256.071 69.1124C254.12 67.2462 252.985 65.264 252.582 63.1662L250.618 63.5438ZM254.704 70.5722C257.025 72.6999 260.477 74.3756 264.96 75.6565L265.509 73.7335C261.173 72.4944 258.054 70.9301 256.055 69.0978L254.704 70.5722ZM264.983 75.6628C269.599 76.8631 275.679 77.45 283.19 77.45V75.45C275.76 75.45 269.87 74.8669 265.486 73.7272L264.983 75.6628ZM283.19 77.45C290.968 77.45 297.391 76.9081 302.438 75.807L302.011 73.853C297.158 74.9119 290.891 75.45 283.19 75.45V77.45ZM302.434 75.8078C304.999 75.2581 307.105 74.583 308.718 73.7642C310.322 72.9504 311.535 71.9462 312.164 70.6872L310.375 69.7928C310.015 70.5138 309.225 71.2645 307.813 71.9808C306.412 72.692 304.49 73.3219 302.015 73.8522L302.434 75.8078ZM283.19 44.4C273.602 44.4 266.159 45.4365 260.94 47.58L261.699 49.43C266.561 47.4335 273.697 46.4 283.19 46.4V44.4ZM260.934 47.5824C258.421 48.6332 256.38 49.701 254.836 50.7937C253.304 51.8779 252.181 53.0424 251.628 54.3163L253.462 55.1137C253.808 54.3176 254.598 53.4121 255.991 52.4263C257.372 51.449 259.268 50.4468 261.705 49.4276L260.934 47.5824ZM252.545 55.715H311.945V53.715H252.545V55.715ZM312.91 54.455C312.15 51.6309 309.22 49.3545 304.779 47.4509L303.991 49.2891C308.369 51.1655 310.479 53.1191 310.979 54.975L312.91 54.455ZM304.794 47.4577C300.181 45.3866 292.937 44.4 283.19 44.4V46.4C292.883 46.4 299.768 47.3934 303.975 49.2823L304.794 47.4577ZM353.544 70.24V69.24H352.639L352.549 70.1405L353.544 70.24ZM383.379 70.24L384.259 69.7659L383.976 69.24H383.379V70.24ZM390.534 75.1L390.285 76.0687L390.291 76.0701L390.534 75.1ZM417.264 75.64L417.054 74.6622L417.047 74.6638L417.264 75.64ZM422.124 73.48L421.38 72.811L421.361 72.8326L421.343 72.8553L422.124 73.48ZM420.774 67.54L420.411 68.472L420.441 68.4838L420.472 68.4936L420.774 67.54ZM412.404 66.46L412.358 67.459L412.369 67.4595L412.381 67.4597L412.404 66.46ZM378.384 65.38L378.262 66.3725L378.271 66.3737L378.281 66.3747L378.384 65.38ZM365.289 62.545L364.937 63.4813L364.948 63.4852L364.958 63.4889L365.289 62.545ZM357.054 57.01L357.831 56.3817L357.054 57.01ZM358.404 37.435L359.122 38.1308L359.127 38.1253L359.132 38.1197L358.404 37.435ZM369.744 30.55L370.065 31.4969L370.073 31.4942L370.081 31.4913L369.744 30.55ZM386.214 26.905L386.1 25.9115L386.098 25.9117L386.214 26.905ZM433.734 29.335L433.424 30.2861L433.435 30.2895L433.734 29.335ZM449.664 38.515L448.914 39.1772L449.664 38.515ZM454.659 51.61V52.61H455.64L455.658 51.6285L454.659 51.61ZM425.634 51.61L424.713 51.9996L424.971 52.61H425.634V51.61ZM419.964 46.75L419.647 47.6987L419.657 47.7017L419.964 46.75ZM392.154 46.885L392.461 47.8367L392.47 47.8338L392.479 47.8307L392.154 46.885ZM389.994 54.445L389.523 55.3274L389.557 55.3456L389.593 55.3612L389.994 54.445ZM397.959 55.795L397.889 56.7926L397.891 56.7927L397.959 55.795ZM430.494 56.74L430.421 57.7374L430.422 57.7375L430.494 56.74ZM443.994 59.035L443.71 59.994L443.716 59.9957L443.994 59.035ZM453.579 64.435L452.858 65.1286L453.579 64.435ZM450.744 86.98L451.349 87.7758L451.352 87.7739L450.744 86.98ZM433.059 93.865L432.874 92.8823L433.059 93.865ZM382.839 94.27L382.653 95.2527L382.656 95.2532L382.839 94.27ZM367.584 89.68L367.136 90.5744L367.145 90.5785L367.153 90.5825L367.584 89.68ZM358.404 83.335L357.655 83.9976L357.668 84.0128L357.682 84.0275L358.404 83.335ZM354.219 76.45L353.253 76.71L353.259 76.7325L353.266 76.7548L354.219 76.45ZM353.544 71.24H383.379V69.24H353.544V71.24ZM382.498 70.7141C383.933 73.3795 386.607 75.1255 390.285 76.0687L390.782 74.1313C387.44 73.2745 385.344 71.7805 384.259 69.7659L382.498 70.7141ZM390.291 76.0701C394.009 76.9997 399.235 77.45 405.924 77.45V75.45C399.292 75.45 394.258 75.0002 390.776 74.1299L390.291 76.0701ZM405.924 77.45C411.067 77.45 414.938 77.1812 417.48 76.6162L417.047 74.6638C414.729 75.1788 411.04 75.45 405.924 75.45V77.45ZM417.473 76.6178C418.773 76.3392 419.88 76.0064 420.775 75.6088C421.659 75.2156 422.405 74.7291 422.904 74.1047L421.343 72.8553C421.122 73.1309 420.698 73.4544 419.962 73.7812C419.237 74.1036 418.274 74.4008 417.054 74.6622L417.473 76.6178ZM422.867 74.149C423.804 73.1082 424.339 71.9342 424.339 70.645H422.339C422.339 71.3358 422.064 72.0518 421.38 72.811L422.867 74.149ZM424.339 70.645C424.339 69.6819 424.064 68.8059 423.468 68.0844C422.883 67.376 422.053 66.8954 421.075 66.5864L420.472 68.4936C421.204 68.7246 421.657 69.0315 421.926 69.3581C422.185 69.6716 422.339 70.0781 422.339 70.645H424.339ZM421.136 66.608C419.338 65.9088 416.392 65.5504 412.426 65.4603L412.381 67.4597C416.335 67.5496 418.969 67.9112 420.411 68.472L421.136 66.608ZM412.449 65.461C408.467 65.28 403.004 65.19 396.069 65.19V67.19C402.993 67.19 408.42 67.28 412.358 67.459L412.449 65.461ZM396.069 65.19C389.525 65.19 383.665 64.921 378.486 64.3853L378.281 66.3747C383.542 66.919 389.472 67.19 396.069 67.19V65.19ZM378.505 64.3875C373.423 63.7633 369.132 62.8309 365.619 61.6011L364.958 63.4889C368.645 64.7791 373.084 65.7367 378.262 66.3725L378.505 64.3875ZM365.64 61.6087C362.161 60.3042 359.582 58.5491 357.831 56.3817L356.276 57.6383C358.305 60.1509 361.216 62.0858 364.937 63.4813L365.64 61.6087ZM357.831 56.3817C356.108 54.2483 355.219 51.5563 355.219 48.235H353.219C353.219 51.9337 354.219 55.0917 356.276 57.6383L357.831 56.3817ZM355.219 48.235C355.219 44.1526 356.527 40.809 359.122 38.1308L357.685 36.7392C354.7 39.821 353.219 43.6774 353.219 48.235H355.219ZM359.132 38.1197C361.787 35.2941 365.414 33.0764 370.065 31.4969L369.422 29.6031C364.533 31.2636 360.6 33.6359 357.675 36.7503L359.132 38.1197ZM370.081 31.4913C374.765 29.8123 380.178 28.6115 386.329 27.8983L386.098 25.9117C379.829 26.6385 374.262 27.8677 369.406 29.6087L370.081 31.4913ZM386.327 27.8985C392.587 27.1832 399.119 26.825 405.924 26.825V24.825C399.049 24.825 392.441 25.1868 386.1 25.9115L386.327 27.8985ZM405.924 26.825C417.205 26.825 426.361 27.9903 433.424 30.286L434.043 28.384C426.706 25.9997 417.322 24.825 405.924 24.825V26.825ZM433.435 30.2895C440.536 32.5086 445.658 35.493 448.914 39.1772L450.413 37.8528C446.829 33.797 441.331 30.6614 434.032 28.3805L433.435 30.2895ZM448.914 39.1772C452.18 42.8725 453.744 46.9984 453.659 51.5915L455.658 51.6285C455.753 46.5016 453.987 41.8975 450.413 37.8528L448.914 39.1772ZM454.659 50.61H425.634V52.61H454.659V50.61ZM426.555 51.2204C425.433 48.5701 423.29 46.7723 420.271 45.7983L419.657 47.7017C422.217 48.5277 423.854 49.9699 424.713 51.9996L426.555 51.2204ZM420.28 45.8013C417.411 44.8451 412.586 44.4 405.924 44.4V46.4C412.581 46.4 417.116 46.8549 419.647 47.6987L420.28 45.8013ZM405.924 44.4C399.605 44.4 394.874 44.8923 391.828 45.9393L392.479 47.8307C395.193 46.8977 399.642 46.4 405.924 46.4V44.4ZM391.847 45.9333C390.357 46.4139 389.139 47.081 388.286 47.9891C387.411 48.9203 386.969 50.0551 386.969 51.34H388.969C388.969 50.5549 389.223 49.9122 389.744 49.3584C390.286 48.7815 391.16 48.2561 392.461 47.8367L391.847 45.9333ZM386.969 51.34C386.969 52.1903 387.184 52.9801 387.637 53.675C388.086 54.3635 388.734 54.9067 389.523 55.3274L390.464 53.5626C389.903 53.2633 389.538 52.929 389.312 52.5825C389.091 52.2424 388.969 51.8397 388.969 51.34H386.969ZM389.593 55.3612C391.209 56.0683 394.024 56.5229 397.889 56.7926L398.028 54.7974C394.153 54.5271 391.658 54.0817 390.394 53.5288L389.593 55.3612ZM397.891 56.7927C401.885 57.065 407.672 57.2 415.239 57.2V55.2C407.685 55.2 401.952 55.065 398.027 54.7973L397.891 56.7927ZM415.239 57.2C420.436 57.2 425.496 57.3792 430.421 57.7374L430.566 55.7426C425.591 55.3808 420.482 55.2 415.239 55.2V57.2ZM430.422 57.7375C435.406 58.0934 439.833 58.8484 443.71 59.994L444.277 58.076C440.234 56.8816 435.661 56.1066 430.565 55.7425L430.422 57.7375ZM443.716 59.9957C447.639 61.1291 450.667 62.8528 452.858 65.1286L454.299 63.7414C451.81 61.1572 448.448 59.2809 444.271 58.0743L443.716 59.9957ZM452.858 65.1286C454.976 67.328 456.089 70.3848 456.089 74.425H458.089C458.089 70.0052 456.861 66.402 454.299 63.7414L452.858 65.1286ZM456.089 74.425C456.089 79.23 454.13 83.1268 450.135 86.1861L451.352 87.7739C455.818 84.3532 458.089 79.88 458.089 74.425H456.089ZM450.138 86.1842C446.168 89.2049 440.44 91.4579 432.874 92.8823L433.244 94.8477C440.977 93.3921 447.039 91.0551 451.349 87.7758L450.138 86.1842ZM432.874 92.8823C425.301 94.3077 416.321 95.025 405.924 95.025V97.025C416.406 97.025 425.516 96.3023 433.244 94.8477L432.874 92.8823ZM405.924 95.025C396.872 95.025 389.242 94.4421 383.021 93.2868L382.656 95.2532C389.035 96.4379 396.796 97.025 405.924 97.025V95.025ZM383.024 93.2873C376.865 92.1269 371.87 90.6179 368.014 88.7775L367.153 90.5825C371.217 92.5221 376.392 94.0731 382.653 95.2527L383.024 93.2873ZM368.031 88.7856C364.134 86.837 361.18 84.7833 359.125 82.6425L357.682 84.0275C359.947 86.3867 363.113 88.563 367.136 90.5744L368.031 88.7856ZM359.153 82.6724C357.146 80.4044 355.837 78.2279 355.171 76.1452L353.266 76.7548C354.04 79.1721 355.521 81.5856 357.655 83.9976L359.153 82.6724ZM355.184 76.19C354.576 73.9297 354.374 71.9856 354.539 70.3395L352.549 70.1405C352.353 72.0944 352.601 74.2903 353.253 76.71L355.184 76.19ZM559.391 94H558.391V95H559.391V94ZM556.961 59.17L557.826 58.6679L556.961 59.17ZM548.321 52.96L547.986 53.9022L547.999 53.9066L548.011 53.9107L548.321 52.96ZM518.621 52.015L518.8 52.9989L518.809 52.9973L518.817 52.9956L518.621 52.015ZM507.821 54.715L507.505 53.7663L507.497 53.7691L507.821 54.715ZM500.261 57.955L499.262 57.9966L499.33 59.6386L500.757 58.8232L500.261 57.955ZM499.991 51.475L499.025 51.2173L498.986 51.3645L498.992 51.5166L499.991 51.475ZM503.636 45.4L502.845 44.7878L502.843 44.7916L503.636 45.4ZM512.951 36.76L513.542 37.5664L513.548 37.5622L513.554 37.5579L512.951 36.76ZM528.206 29.065L528.527 30.0123L528.535 30.0095L528.206 29.065ZM565.601 27.31L565.797 26.3294L565.601 27.31ZM578.831 32.305L578.314 33.1607L578.325 33.1678L578.337 33.1745L578.831 32.305ZM588.281 41.485L587.425 42.0024L588.281 41.485ZM591.791 94V95H592.791V94H591.791ZM469.211 94H468.211V95H469.211V94ZM469.211 0.849992V-0.150008H468.211V0.849992H469.211ZM501.611 0.849992H502.611V-0.150008H501.611V0.849992ZM501.611 94V95H502.611V94H501.611ZM560.391 94V69.43H558.391V94H560.391ZM560.391 69.43C560.391 65.2481 559.554 61.6447 557.826 58.6679L556.096 59.6721C557.608 62.2753 558.391 65.5119 558.391 69.43H560.391ZM557.826 58.6679C556.045 55.6004 552.922 53.4085 548.631 52.0093L548.011 53.9107C552 55.2115 554.637 57.1596 556.096 59.6721L557.826 58.6679ZM548.656 52.0178C544.447 50.5213 538.554 49.8 531.041 49.8V51.8C538.468 51.8 544.095 52.5187 547.986 53.9022L548.656 52.0178ZM531.041 49.8C526.747 49.8 522.541 50.2112 518.425 51.0344L518.817 52.9956C522.801 52.1988 526.875 51.8 531.041 51.8V49.8ZM518.442 51.0311C514.444 51.7581 510.797 52.669 507.505 53.7663L508.137 55.6637C511.325 54.601 514.879 53.7119 518.8 52.9989L518.442 51.0311ZM507.497 53.7691C504.315 54.86 501.73 55.9637 499.765 57.0868L500.757 58.8232C502.572 57.7863 505.027 56.73 508.145 55.6609L507.497 53.7691ZM501.26 57.9134L500.99 51.4334L498.992 51.5166L499.262 57.9966L501.26 57.9134ZM500.957 51.7327C501.26 50.5961 502.357 48.7122 504.43 46.0084L502.843 44.7916C500.775 47.4878 499.442 49.6539 499.025 51.2173L500.957 51.7327ZM504.427 46.0122C506.511 43.3197 509.539 40.5025 513.542 37.5664L512.36 35.9536C508.264 38.9575 505.081 41.9003 502.845 44.7878L504.427 46.0122ZM513.554 37.5579C517.499 34.5773 522.482 32.0568 528.527 30.0123L527.886 28.1177C521.691 30.2132 516.503 32.8226 512.348 35.9621L513.554 37.5579ZM528.535 30.0095C534.614 27.8951 541.833 26.825 550.211 26.825V24.825C541.67 24.825 534.219 25.9149 527.878 28.1205L528.535 30.0095ZM550.211 26.825C555.459 26.825 560.523 27.3141 565.405 28.2906L565.797 26.3294C560.779 25.3259 555.584 24.825 550.211 24.825V26.825ZM565.405 28.2906C570.255 29.2605 574.554 30.8872 578.314 33.1607L579.349 31.4493C575.369 29.0428 570.848 27.3395 565.797 26.3294L565.405 28.2906ZM578.337 33.1745C582.15 35.3406 585.175 38.2799 587.425 42.0024L589.137 40.9676C586.708 36.9501 583.433 33.7694 579.325 31.4355L578.337 33.1745ZM587.425 42.0024C589.648 45.679 590.791 50.3032 590.791 55.93H592.791C592.791 50.0368 591.594 45.031 589.137 40.9676L587.425 42.0024ZM590.791 55.93V94H592.791V55.93H590.791ZM591.791 93H559.391V95H591.791V93ZM470.211 94V0.849992H468.211V94H470.211ZM469.211 1.84999H501.611V-0.150008H469.211V1.84999ZM500.611 0.849992V94H502.611V0.849992H500.611ZM501.611 93H469.211V95H501.611V93Z" fill="white"/>
</svg>
