<svg width="517" height="97" viewBox="0 0 517 97" fill="none" xmlns="http://www.w3.org/2000/svg">
<path d="M34.2 7.59999V68.35H112.905V94H0.45V7.59999H34.2ZM184.567 96.025C170.257 96.025 158.332 94.855 148.792 92.515C139.342 90.175 132.232 86.44 127.462 81.31C122.782 76.18 120.442 69.43 120.442 61.06C120.442 52.69 122.782 45.94 127.462 40.81C132.232 35.59 139.342 31.81 148.792 29.47C158.332 27.04 170.257 25.825 184.567 25.825C198.787 25.825 210.577 27.04 219.937 29.47C229.387 31.81 236.452 35.59 241.132 40.81C245.812 45.94 248.152 52.69 248.152 61.06C248.152 69.43 245.812 76.18 241.132 81.31C236.452 86.44 229.387 90.175 219.937 92.515C210.577 94.855 198.787 96.025 184.567 96.025ZM184.567 76.45C191.227 76.45 196.807 75.91 201.307 74.83C205.807 73.66 209.227 71.95 211.567 69.7C213.907 67.36 215.077 64.48 215.077 61.06C215.077 57.64 213.907 54.76 211.567 52.42C209.317 50.08 205.942 48.325 201.442 47.155C196.942 45.985 191.317 45.4 184.567 45.4C177.907 45.4 172.237 45.985 167.557 47.155C162.967 48.325 159.457 50.08 157.027 52.42C154.687 54.67 153.517 57.55 153.517 61.06C153.517 64.48 154.687 67.36 157.027 69.7C159.367 71.95 162.832 73.66 167.422 74.83C172.102 75.91 177.817 76.45 184.567 76.45ZM321.676 96.025C307.366 96.025 295.441 94.855 285.901 92.515C276.451 90.175 269.341 86.44 264.571 81.31C259.891 76.18 257.551 69.43 257.551 61.06C257.551 52.69 259.891 45.94 264.571 40.81C269.341 35.59 276.451 31.81 285.901 29.47C295.441 27.04 307.366 25.825 321.676 25.825C335.896 25.825 347.686 27.04 357.046 29.47C366.496 31.81 373.561 35.59 378.241 40.81C382.921 45.94 385.261 52.69 385.261 61.06C385.261 69.43 382.921 76.18 378.241 81.31C373.561 86.44 366.496 90.175 357.046 92.515C347.686 94.855 335.896 96.025 321.676 96.025ZM321.676 76.45C328.336 76.45 333.916 75.91 338.416 74.83C342.916 73.66 346.336 71.95 348.676 69.7C351.016 67.36 352.186 64.48 352.186 61.06C352.186 57.64 351.016 54.76 348.676 52.42C346.426 50.08 343.051 48.325 338.551 47.155C334.051 45.985 328.426 45.4 321.676 45.4C315.016 45.4 309.346 45.985 304.666 47.155C300.076 48.325 296.566 50.08 294.136 52.42C291.796 54.67 290.626 57.55 290.626 61.06C290.626 64.48 291.796 67.36 294.136 69.7C296.476 71.95 299.941 73.66 304.531 74.83C309.211 75.91 314.926 76.45 321.676 76.45ZM397.361 0.849992H429.761V94H397.361V0.849992ZM511.841 27.85L458.381 64.975L459.056 47.425L516.431 94H475.391L430.301 56.335L468.911 27.85H511.841Z" fill="white"/>
<path d="M34.2 7.59999H35.2V6.59999H34.2V7.59999ZM34.2 68.35H33.2V69.35H34.2V68.35ZM112.905 68.35H113.905V67.35H112.905V68.35ZM112.905 94V95H113.905V94H112.905ZM0.45 94H-0.55V95H0.45V94ZM0.45 7.59999V6.59999H-0.55V7.59999H0.45ZM33.2 7.59999V68.35H35.2V7.59999H33.2ZM34.2 69.35H112.905V67.35H34.2V69.35ZM111.905 68.35V94H113.905V68.35H111.905ZM112.905 93H0.45V95H112.905V93ZM1.45 94V7.59999H-0.55V94H1.45ZM0.45 8.59999H34.2V6.59999H0.45V8.59999ZM148.792 92.515L148.551 93.4857L148.554 93.4862L148.792 92.515ZM127.462 81.31L126.723 81.984L126.729 81.9909L127.462 81.31ZM127.462 40.81L126.724 40.1354L126.723 40.136L127.462 40.81ZM148.792 29.47L149.032 30.4407L149.039 30.4391L148.792 29.47ZM219.937 29.47L219.686 30.438L219.696 30.4407L219.937 29.47ZM241.132 40.81L240.387 41.4776L240.393 41.484L241.132 40.81ZM241.132 81.31L240.393 80.636L241.132 81.31ZM219.937 92.515L219.696 91.5443L219.694 91.5449L219.937 92.515ZM201.307 74.83L201.54 75.8024L201.549 75.8002L201.558 75.7978L201.307 74.83ZM211.567 69.7L212.26 70.4208L212.267 70.414L212.274 70.4071L211.567 69.7ZM211.567 52.42L210.846 53.1131L210.853 53.1202L210.86 53.1271L211.567 52.42ZM201.442 47.155L201.19 48.1228L201.442 47.155ZM167.557 47.155L167.314 46.1848L167.31 46.186L167.557 47.155ZM157.027 52.42L157.72 53.1408L157.72 53.1403L157.027 52.42ZM157.027 69.7L156.32 70.4071L156.327 70.414L156.334 70.4208L157.027 69.7ZM167.422 74.83L167.175 75.799L167.186 75.8018L167.197 75.8044L167.422 74.83ZM184.567 95.025C170.304 95.025 158.465 93.8581 149.03 91.5438L148.554 93.4862C158.198 95.8519 170.21 97.025 184.567 97.025V95.025ZM149.032 91.5443C139.7 89.2335 132.79 85.5713 128.194 80.6291L126.729 81.9909C131.674 87.3087 138.984 91.1165 148.551 93.4857L149.032 91.5443ZM128.201 80.636C123.722 75.7266 121.442 69.2346 121.442 61.06H119.442C119.442 69.6254 121.842 76.6334 126.723 81.984L128.201 80.636ZM121.442 61.06C121.442 52.8854 123.722 46.3934 128.201 41.484L126.723 40.136C121.842 45.4866 119.442 52.4946 119.442 61.06H121.442ZM128.2 41.4846C132.795 36.4556 139.704 32.7506 149.032 30.4407L148.551 28.4993C138.98 30.8694 131.668 34.7244 126.724 40.1354L128.2 41.4846ZM149.039 30.4391C158.471 28.0366 170.306 26.825 184.567 26.825V24.825C170.208 24.825 158.193 26.0434 148.545 28.5009L149.039 30.4391ZM184.567 26.825C198.738 26.825 210.436 28.0366 219.686 30.4379L220.188 28.5021C210.717 26.0434 198.836 24.825 184.567 24.825V26.825ZM219.696 30.4407C229.025 32.7506 235.884 36.4546 240.387 41.4775L241.876 40.1425C237.02 34.7254 229.749 30.8694 220.177 28.4993L219.696 30.4407ZM240.393 41.484C244.872 46.3934 247.152 52.8854 247.152 61.06H249.152C249.152 52.4946 246.752 45.4866 241.871 40.136L240.393 41.484ZM247.152 61.06C247.152 69.2346 244.872 75.7266 240.393 80.636L241.871 81.984C246.752 76.6334 249.152 69.6254 249.152 61.06H247.152ZM240.393 80.636C235.89 85.5723 229.029 89.2334 219.696 91.5443L220.177 93.4857C229.745 91.1166 237.014 87.3077 241.871 81.984L240.393 80.636ZM219.694 91.5449C210.441 93.8581 198.74 95.025 184.567 95.025V97.025C198.834 97.025 210.712 95.8519 220.179 93.4851L219.694 91.5449ZM184.567 77.45C191.274 77.45 196.938 76.9068 201.54 75.8024L201.073 73.8576C196.675 74.9132 191.179 75.45 184.567 75.45V77.45ZM201.558 75.7978C206.157 74.6022 209.754 72.83 212.26 70.4208L210.874 68.9792C208.699 71.07 205.457 72.7178 201.055 73.8622L201.558 75.7978ZM212.274 70.4071C214.808 67.8727 216.077 64.7353 216.077 61.06H214.077C214.077 64.2247 213.005 66.8473 210.86 68.9929L212.274 70.4071ZM216.077 61.06C216.077 57.3847 214.808 54.2473 212.274 51.7129L210.86 53.1271C213.005 55.2727 214.077 57.8953 214.077 61.06H216.077ZM212.288 51.7269C209.866 49.2081 206.299 47.3846 201.693 46.1872L201.19 48.1228C205.585 49.2654 208.768 50.9519 210.846 53.1131L212.288 51.7269ZM201.693 46.1872C197.083 44.9886 191.367 44.4 184.567 44.4V46.4C191.266 46.4 196.8 46.9814 201.19 48.1228L201.693 46.1872ZM184.567 44.4C177.854 44.4 172.097 44.9891 167.314 46.1849L167.799 48.1251C172.376 46.9809 177.96 46.4 184.567 46.4V44.4ZM167.31 46.186C162.616 47.3824 158.928 49.2006 156.333 51.6997L157.72 53.1403C159.985 50.9594 163.317 49.2676 167.804 48.124L167.31 46.186ZM156.334 51.6992C153.781 54.1541 152.517 57.3025 152.517 61.06H154.517C154.517 57.7975 155.593 55.1859 157.72 53.1408L156.334 51.6992ZM152.517 61.06C152.517 64.7353 153.785 67.8727 156.32 70.4071L157.734 68.9929C155.588 66.8473 154.517 64.2247 154.517 61.06H152.517ZM156.334 70.4208C158.843 72.8334 162.489 74.6046 167.175 75.799L167.669 73.861C163.175 72.7154 159.891 71.0666 157.72 68.9792L156.334 70.4208ZM167.197 75.8044C171.974 76.9067 177.769 77.45 184.567 77.45V75.45C177.865 75.45 172.23 74.9133 167.647 73.8556L167.197 75.8044ZM285.901 92.515L285.661 93.4857L285.663 93.4862L285.901 92.515ZM264.571 81.31L263.832 81.984L263.839 81.9909L264.571 81.31ZM264.571 40.81L263.833 40.1354L263.832 40.136L264.571 40.81ZM285.901 29.47L286.142 30.4407L286.148 30.4391L285.901 29.47ZM357.046 29.47L356.795 30.438L356.806 30.4407L357.046 29.47ZM378.241 40.81L377.497 41.4776L377.502 41.484L378.241 40.81ZM378.241 81.31L377.502 80.636L378.241 81.31ZM357.046 92.515L356.806 91.5443L356.804 91.5449L357.046 92.515ZM338.416 74.83L338.65 75.8024L338.659 75.8002L338.668 75.7978L338.416 74.83ZM348.676 69.7L349.369 70.4208L349.376 70.414L349.383 70.4071L348.676 69.7ZM348.676 52.42L347.955 53.1131L347.962 53.1202L347.969 53.1271L348.676 52.42ZM338.551 47.155L338.3 48.1228L338.551 47.155ZM304.666 47.155L304.424 46.1848L304.419 46.186L304.666 47.155ZM294.136 52.42L294.829 53.1408L294.83 53.1403L294.136 52.42ZM294.136 69.7L293.429 70.4071L293.436 70.414L293.443 70.4208L294.136 69.7ZM304.531 74.83L304.284 75.799L304.295 75.8018L304.306 75.8044L304.531 74.83ZM321.676 95.025C307.413 95.025 295.575 93.8581 286.139 91.5438L285.663 93.4862C295.307 95.8519 307.319 97.025 321.676 97.025V95.025ZM286.142 91.5443C276.809 89.2335 269.899 85.5713 265.303 80.6291L263.839 81.9909C268.783 87.3087 276.093 91.1165 285.661 93.4857L286.142 91.5443ZM265.31 80.636C260.831 75.7266 258.551 69.2346 258.551 61.06H256.551C256.551 69.6254 258.951 76.6334 263.832 81.984L265.31 80.636ZM258.551 61.06C258.551 52.8854 260.831 46.3934 265.31 41.484L263.832 40.136C258.951 45.4866 256.551 52.4946 256.551 61.06H258.551ZM265.309 41.4846C269.905 36.4556 276.813 32.7506 286.142 30.4407L285.661 28.4993C276.089 30.8694 268.778 34.7244 263.833 40.1354L265.309 41.4846ZM286.148 30.4391C295.58 28.0366 307.415 26.825 321.676 26.825V24.825C307.317 24.825 295.302 26.0434 285.654 28.5009L286.148 30.4391ZM321.676 26.825C335.847 26.825 347.546 28.0366 356.795 30.4379L357.297 28.5021C347.827 26.0434 335.945 24.825 321.676 24.825V26.825ZM356.806 30.4407C366.134 32.7506 372.993 36.4546 377.497 41.4775L378.986 40.1425C374.129 34.7254 366.858 30.8694 357.287 28.4993L356.806 30.4407ZM377.502 41.484C381.981 46.3934 384.261 52.8854 384.261 61.06H386.261C386.261 52.4946 383.861 45.4866 378.98 40.136L377.502 41.484ZM384.261 61.06C384.261 69.2346 381.981 75.7266 377.502 80.636L378.98 81.984C383.861 76.6334 386.261 69.6254 386.261 61.06H384.261ZM377.502 80.636C372.999 85.5723 366.138 89.2334 356.806 91.5443L357.287 93.4857C366.854 91.1166 374.123 87.3077 378.98 81.984L377.502 80.636ZM356.804 91.5449C347.551 93.8581 335.849 95.025 321.676 95.025V97.025C335.943 97.025 347.822 95.8519 357.289 93.4851L356.804 91.5449ZM321.676 77.45C328.384 77.45 334.048 76.9068 338.65 75.8024L338.183 73.8576C333.785 74.9132 328.289 75.45 321.676 75.45V77.45ZM338.668 75.7978C343.266 74.6022 346.864 72.83 349.369 70.4208L347.983 68.9792C345.809 71.07 342.566 72.7178 338.165 73.8622L338.668 75.7978ZM349.383 70.4071C351.918 67.8727 353.186 64.7353 353.186 61.06H351.186C351.186 64.2247 350.115 66.8473 347.969 68.9929L349.383 70.4071ZM353.186 61.06C353.186 57.3847 351.918 54.2473 349.383 51.7129L347.969 53.1271C350.115 55.2727 351.186 57.8953 351.186 61.06H353.186ZM349.397 51.7269C346.975 49.2081 343.408 47.3846 338.803 46.1872L338.3 48.1228C342.694 49.2654 345.877 50.9519 347.955 53.1131L349.397 51.7269ZM338.803 46.1872C334.193 44.9886 328.477 44.4 321.676 44.4V46.4C328.376 46.4 333.91 46.9814 338.3 48.1228L338.803 46.1872ZM321.676 44.4C314.963 44.4 309.207 44.9891 304.424 46.1849L304.909 48.1251C309.486 46.9809 315.069 46.4 321.676 46.4V44.4ZM304.419 46.186C299.726 47.3824 296.038 49.2006 293.443 51.6997L294.83 53.1403C297.095 50.9594 300.427 49.2676 304.913 48.124L304.419 46.186ZM293.443 51.6992C290.89 54.1541 289.626 57.3025 289.626 61.06H291.626C291.626 57.7975 292.702 55.1859 294.829 53.1408L293.443 51.6992ZM289.626 61.06C289.626 64.7353 290.895 67.8727 293.429 70.4071L294.843 68.9929C292.698 66.8473 291.626 64.2247 291.626 61.06H289.626ZM293.443 70.4208C295.952 72.8334 299.598 74.6046 304.284 75.799L304.778 73.861C300.284 72.7154 297 71.0666 294.829 68.9792L293.443 70.4208ZM304.306 75.8044C309.083 76.9067 314.878 77.45 321.676 77.45V75.45C314.974 75.45 309.339 74.9133 304.756 73.8556L304.306 75.8044ZM397.361 0.849992V-0.150008H396.361V0.849992H397.361ZM429.761 0.849992H430.761V-0.150008H429.761V0.849992ZM429.761 94V95H430.761V94H429.761ZM397.361 94H396.361V95H397.361V94ZM511.841 27.85L512.411 28.6714L515.034 26.85H511.841V27.85ZM458.381 64.975L457.381 64.9366L457.304 66.9399L458.951 65.7964L458.381 64.975ZM459.056 47.425L459.686 46.6486L458.133 45.3882L458.056 47.3866L459.056 47.425ZM516.431 94V95H519.249L517.061 93.2236L516.431 94ZM475.391 94L474.749 94.7675L475.028 95H475.391V94ZM430.301 56.335L429.707 55.5303L428.682 56.2862L429.659 57.1025L430.301 56.335ZM468.911 27.85V26.85H468.582L468.317 27.0453L468.911 27.85ZM397.361 1.84999H429.761V-0.150008H397.361V1.84999ZM428.761 0.849992V94H430.761V0.849992H428.761ZM429.761 93H397.361V95H429.761V93ZM398.361 94V0.849992H396.361V94H398.361ZM511.27 27.0286L457.81 64.1536L458.951 65.7964L512.411 28.6714L511.27 27.0286ZM459.38 65.0134L460.055 47.4634L458.056 47.3866L457.381 64.9366L459.38 65.0134ZM458.425 48.2014L515.8 94.7764L517.061 93.2236L459.686 46.6486L458.425 48.2014ZM516.431 93H475.391V95H516.431V93ZM476.032 93.2325L430.942 55.5675L429.659 57.1025L474.749 94.7675L476.032 93.2325ZM430.894 57.1397L469.504 28.6547L468.317 27.0453L429.707 55.5303L430.894 57.1397ZM468.911 28.85H511.841V26.85H468.911V28.85Z" fill="white"/>
</svg>
